<?xml version="1.0" standalone="no"?>
<!DOCTYPE svg PUBLIC "-//W3C//DTD SVG 1.1//EN" "http://www.w3.org/Graphics/SVG/1.1/DTD/svg11.dtd" >
<svg xmlns="http://www.w3.org/2000/svg">
<metadata>Generated by IcoMoon</metadata>
<defs>
<font id="epro" horiz-adv-x="1024">
<font-face units-per-em="1024" ascent="960" descent="-64" />
<missing-glyph horiz-adv-x="1024" />
<glyph unicode="&#x20;" horiz-adv-x="512" d="" />
<glyph unicode="&#xe900;" glyph-name="address" d="M511.984 960c-207.854 0-376.975-169.121-376.975-376.996 0-54.222 11.098-105.991 32.969-153.883 94.254-206.25 274.966-424.007 328.118-485.827 3.982-4.622 9.788-7.283 15.898-7.283s11.915 2.662 15.898 7.283c53.132 61.809 233.843 279.556 328.129 485.827 21.882 47.892 32.969 99.662 32.969 153.883-0.021 207.875-169.142 376.996-377.006 376.996zM511.984 387.192c-107.972 0-195.823 87.851-195.823 195.823 0 107.983 87.851 195.834 195.823 195.834s195.823-87.851 195.823-195.834c0.010-107.972-87.841-195.823-195.823-195.823z" />
<glyph unicode="&#xe901;" glyph-name="admin" d="M550.67 739.261c-1.308 24.428-26.273 20.272-50.632 20.272 17.994-4.792 35.016-11.46 50.632-20.272zM290.271 800.481c-94.564 0-138.091-119.693-62.495-179.893 25.77 68.811 77.071 118.22 144.324 137.722-18.397 25.434-48.12 42.171-81.829 42.171zM94.914 639.319c3.854-12.366 8.847-24.23 14.779-35.469l-31.063-31.080c-8.342-8.342-8.342-21.882 0-30.241l54.753-54.771c3.988-3.988 9.451-6.232 15.145-6.232 5.632 0 11.059 2.244 15.115 6.232l31.029 31.080c4.656-2.464 9.818-3.975 14.64-6.1 0 0.354-0.035 0.721-0.035 1.075 0 25.399 2.917 49.359 8.111 71.858-37.463 24.111-62.461 65.963-62.461 113.747 0 74.641 60.717 135.376 135.342 135.376 50.531 0 94.158-28.131 117.447-69.23 24.864 3.083 48.22 3.083 76.333-2.229-3.616 10.94-7.872 21.647-13.201 31.682l31.063 31.096c4.052 4.005 6.296 9.451 6.296 15.113 0 5.664-2.244 11.108-6.296 15.113l-54.723 54.736c-4.186 4.188-9.65 6.266-15.111 6.266-5.463 0-10.925-2.078-15.081-6.266l-31.162-31.096c-11.257 5.964-23.086 10.957-35.482 14.727v43.932c0 11.794-9.518 21.362-21.347 21.362h-77.438c-11.762 0-21.381-9.568-21.381-21.362v-43.93c-12.364-3.77-24.195-8.763-35.487-14.727l-31.057 31.061c-4.19 4.188-9.652 6.266-15.115 6.266-5.461 0-10.955-2.078-15.111-6.249l-54.788-54.736c-3.988-4.022-6.232-9.449-6.232-15.13 0-5.679 2.244-11.108 6.232-15.113l31.063-31.078c-5.934-11.259-10.925-23.105-14.709-35.469h-43.898c-11.829 0-21.381-9.583-21.381-21.394v-77.44c0-11.777 9.552-21.379 21.381-21.379h43.829zM765.728 224.949c34.248 18.783 57.77 54.736 57.77 96.459 0 60.886-49.557 110.409-110.443 110.409-21.412 0-41.252-6.4-58.206-16.988-10.152-40.411-26.137-79.065-47.046-112.64 59.274-11.143 113.66-38.134 157.925-77.239zM994.26 363.188c0 12.75-10.355 23.073-23.056 23.073h-47.378c-4.091 13.354-9.518 26.154-15.952 38.3l33.54 33.54c4.359 4.324 6.769 10.187 6.769 16.302 0 6.117-2.412 11.982-6.769 16.319l-59.043 59.060c-4.488 4.51-10.42 6.771-16.315 6.771-5.899 0-11.797-2.261-16.285-6.771l-33.609-33.558c-12.133 6.434-24.898 11.827-38.302 15.901v47.38c0 12.733-10.288 23.056-23.021 23.056h-83.536c-5.597 0-10.523-2.244-14.541-5.563 7.034-25.667 10.888-53.497 10.888-83.186 0-18.848-1.472-37.985-4.221-57.015 15.547 5.731 32.099 9.33 49.626 9.33 79.816 0 144.756-64.925 144.756-144.721 0-51.003-26.638-95.703-66.615-121.489 29.087-31.9 52.207-69.748 67.253-112.152 2.477-0.854 5.058-1.476 7.638-1.476 5.897 0 11.797 2.244 16.319 6.754l59.077 59.060c4.324 4.324 6.702 10.187 6.702 16.302s-2.378 11.978-6.702 16.319l-33.609 33.558c6.434 12.129 11.861 24.933 15.952 38.3h47.378c6.098 0 12.030 2.412 16.319 6.771 4.324 4.307 6.771 10.185 6.771 16.302l-0.037 83.531zM811.402 66.888c-35.823 105.403-130.482 177.897-239.756 187.764-36.591-38.749-81.896-63.333-133.201-63.333-51.266 0-96.605 24.581-133.162 63.333-109.338-9.867-204.002-82.362-239.825-187.782l-19.802-58.288c-5.664-16.772-2.952-35.254 7.371-49.644 10.321-14.394 26.942-22.939 44.633-22.939h681.537c17.726 0 34.347 8.545 44.67 22.939 10.286 14.39 13.035 32.871 7.336 49.644l-19.802 58.305zM260.749 513.813c0-130.737 79.585-271.022 177.696-271.022 98.15 0 177.731 140.285 177.731 271.022 0.002 271.002-355.427 271.54-355.427 0z" />
<glyph unicode="&#xe902;" glyph-name="back" d="M512 960c-282.764 0-512-229.236-512-512s229.236-512 512-512 512 229.236 512 512-229.236 512-512 512zM512 21.334c-235.636 0-426.666 191.030-426.666 426.666s191.030 426.666 426.666 426.666 426.666-191.030 426.666-426.666-191.030-426.666-426.666-426.666zM768 490.666h-408.994l97.83 97.83c16.662 16.662 16.662 43.678 0 60.34s-43.678 16.662-60.34 0l-170.666-170.666c-0.016-0.016-0.028-0.032-0.042-0.046-0.976-0.98-1.904-2.008-2.784-3.080-0.408-0.496-0.76-1.018-1.142-1.528-0.452-0.604-0.922-1.196-1.342-1.826-0.408-0.608-0.76-1.24-1.132-1.864-0.34-0.57-0.698-1.128-1.012-1.714-0.34-0.636-0.63-1.292-0.936-1.942-0.29-0.612-0.594-1.214-0.856-1.842-0.26-0.63-0.472-1.274-0.7-1.914-0.242-0.674-0.5-1.338-0.708-2.026-0.194-0.64-0.336-1.292-0.498-1.938-0.178-0.702-0.374-1.396-0.516-2.11-0.148-0.75-0.236-1.506-0.346-2.26-0.088-0.622-0.208-1.234-0.27-1.866-0.276-2.8-0.276-5.622 0-8.422 0.062-0.63 0.18-1.242 0.27-1.866 0.108-0.754 0.196-1.512 0.346-2.26 0.142-0.716 0.338-1.408 0.516-2.11 0.162-0.648 0.304-1.298 0.498-1.938 0.208-0.688 0.466-1.354 0.708-2.026 0.23-0.64 0.44-1.284 0.7-1.914 0.26-0.628 0.566-1.23 0.856-1.842 0.306-0.65 0.594-1.306 0.936-1.942 0.314-0.586 0.672-1.144 1.012-1.714 0.372-0.624 0.726-1.256 1.132-1.864 0.422-0.63 0.89-1.222 1.342-1.826 0.382-0.51 0.736-1.032 1.142-1.528 0.878-1.070 1.806-2.1 2.784-3.080 0.014-0.016 0.028-0.032 0.042-0.046l170.666-170.666c16.662-16.662 43.678-16.662 60.34 0s16.662 43.678 0 60.34l-97.83 97.83h408.994c23.564 0 42.666 19.102 42.666 42.666s-19.102 42.66-42.666 42.66z" />
<glyph unicode="&#xe903;" glyph-name="bidder" d="M655.342 471.828l-590.813-176.511c-4.68-1.397-9.51-2.106-14.369-2.106-21.994 0-41.751 14.725-48.054 35.81-7.916 26.501 7.203 54.507 33.709 62.423l590.809 176.516-30.754 102.936 268.939 80.347 90.228-302.005-268.939-80.351-30.754 102.941zM715.814 286.941c2.945-9.862 12.179-16.747 22.449-16.747 2.256 0 4.521 0.333 6.73 0.99l214.399 64.055c6.003 1.796 10.95 5.82 13.928 11.33 2.973 5.51 3.625 11.846 1.834 17.849l-11.485 38.45-259.334-77.477 11.48-38.45zM837.298 825.826c-2.945 9.862-12.179 16.747-22.444 16.747-2.26 0-4.525-0.333-6.734-0.99l-214.394-64.055c-6.003-1.791-10.95-5.815-13.928-11.325-2.973-5.51-3.625-11.851-1.834-17.849l9.285-31.083 259.334 77.477-9.285 31.078zM1000.552 100.323h-24.212v25.793c0 12.948-10.495 23.448-23.448 23.448h-346.969c-12.953 0-23.448-10.5-23.448-23.448v-25.793h-24.212c-12.953 0-23.448-10.5-23.448-23.448s10.495-23.448 23.448-23.448h442.289c12.953 0 23.448 10.5 23.448 23.448s-10.5 23.448-23.448 23.448z" />
<glyph unicode="&#xe904;" glyph-name="company" d="M446.745 513.255h125.49v-155.608h256v532.078h-80.314v70.275h-471.843v-70.275h-80.314v-532.078h250.98v155.608zM632.471 814.431h120.471v-80.314h-120.471v80.314zM632.471 663.843h120.471v-80.314h-120.471v80.314zM632.471 513.255h120.471v-80.314h-120.471v80.314zM446.745 814.431h125.49v-80.314h-125.49v80.314zM446.745 663.843h125.49v-80.314h-125.49v80.314zM386.51 432.941h-120.471v80.314h120.471v-80.314zM386.51 583.529h-120.471v80.314h120.471v-80.314zM386.51 734.118h-120.471v80.314h120.471v-80.314zM823.216 86.588v200.784h-622.431v-200.784h-55.216v-150.588h205.804v150.588h-55.216v105.412h431.686v-105.412h-55.216v-150.588h205.804v150.588z" />
<glyph unicode="&#xe905;" glyph-name="country" d="M937.265 732.879l-15.32-4.857-81.585-7.269-23.045-36.8-16.721 5.313-64.929 58.54-9.42 30.444-12.614 32.464-40.809 36.604-48.143 9.42-1.108-22.034 47.165-46.024 23.077-27.184-25.946-13.559-21.121 6.226-31.65 13.201 1.076 25.522-41.526 17.080-13.788-60.007-41.852-9.485 4.14-33.475 54.531-10.496 9.42 53.488 45.013-6.649 20.926-12.256h33.573l22.979-46.024 60.92-61.8-4.465-24.022-49.12 6.258-84.877-42.862-61.115-73.306-7.953-32.464h-21.936l-40.874 18.84-39.701-18.84 9.876-41.884 17.275 19.915 30.378 0.945-2.119-37.614 25.163-7.366 25.131-28.227 41.037 11.539 46.871-7.399 54.433-14.635 27.184-3.194 46.089-52.315 88.951-52.315-57.53-109.91-60.724-28.227-23.045-62.81-87.876-58.671-9.355-33.833c224.644 54.107 391.758 255.902 391.758 497.169-0.065 105.379-32.008 203.457-86.702 284.846zM570.899 180.429l-37.289 69.134 34.225 71.318-34.225 10.235-38.429 38.592-85.138 19.101-28.26 59.127v-35.105h-12.451l-73.371 99.48v81.715l-53.782 87.452-85.399-15.222h-57.53l-28.944 18.97 36.93 29.27-36.832-8.507c-44.394-75.816-70.275-163.789-70.275-258.021 0-282.695 229.174-511.967 511.902-511.967 21.773 0 43.123 1.923 64.244 4.465l-5.346 62.028c0 0 23.501 92.113 23.501 95.242-0.033 3.162-23.533 82.693-23.533 82.693zM190.354 794.907l90.94 12.679 41.917 22.979 47.165-13.592 75.359 4.172 25.815 40.581 37.647-6.193 91.429 8.572 25.196 27.771 35.528 23.729 50.261-7.562 18.318 2.771c-66.2 31.161-139.865 49.186-217.929 49.186-158.9 0-300.981-72.426-394.789-186.149h0.261l72.882 21.056zM533.643 909.087l52.282 28.781 33.573-19.394-48.599-36.995-46.415-4.661-20.893 13.559 30.052 18.709zM378.785 904.882l23.077-9.615 30.215 9.615 16.46-28.52-69.753-18.318-33.54 19.622c-0.033 0 32.79 21.121 33.54 27.217z" />
<glyph unicode="&#xe906;" glyph-name="create-tender" d="M745.391 398.799c-127.595 0-231.401-103.806-231.401-231.398s103.806-231.401 231.401-231.401 231.401 103.806 231.401 231.401-103.806 231.398-231.401 231.398zM888.518 132.492h-108.218v-108.218h-69.818v108.218h-108.218v69.818h108.218v108.218h69.818v-108.218h108.218v-69.818zM547.572 925.091v-162.909h162.909zM163.572 151.273v69.818h285.398c6.004 33.236 17.494 64.582 33.471 93.091h-318.869v69.818h372.722c54.216 52.354 127.956 84.617 209.096 84.617v223.746h-267.636v267.636h-430.545v-965.818h451.907c-31.681 44.914-51.421 98.828-54.509 157.091h-281.034zM163.572 546.909h465.455v-69.818h-465.455v69.818z" />
<glyph unicode="&#xe907;" glyph-name="doc" d="M874.613 844.084h-29.942v-735.6c0-48.868-39.779-88.646-88.647-88.646h-544.616v-27.268c0-31.226 25.343-56.568 56.568-56.568h606.53c31.225 0 56.567 25.342 56.567 56.568v794.946c0.001 31.225-25.235 56.568-56.46 56.568zM452.652 51.918h303.265c31.225 0 56.568 25.342 56.568 56.566v794.948c0 31.225-25.343 56.568-56.568 56.568h-404.104v-18.713c0.213-1.925 0.321-3.957 0.321-5.988v-154.947c0-43.95-35.716-79.666-79.666-79.666h-154.947c-1.604 0-3.315 0.107-4.919 0.214h-19.676v-592.415c0-31.224 25.343-56.566 56.568-56.566h303.158zM464.094 244.184h-197.721c-14.757 0-26.734 11.978-26.734 26.734 0 14.758 11.977 26.734 26.734 26.734h197.828c14.757 0 26.734-11.976 26.734-26.734 0-14.756-12.084-26.734-26.84-26.734zM661.921 380.631h-395.549c-14.757 0-26.734 11.978-26.734 26.734 0 14.758 11.977 26.734 26.734 26.734h395.549c14.757 0 26.734-11.976 26.734-26.734 0-14.756-11.977-26.734-26.734-26.734zM266.373 578.994h395.549c14.757 0 26.734-11.977 26.734-26.734s-11.977-26.734-26.734-26.734h-395.549c-14.757 0-26.734 11.977-26.734 26.734s11.977 26.734 26.734 26.734zM117.52 732.765h154.947c0.107 0 0.321 0 0.428 0 25.878 0.214 46.837 21.173 47.051 47.051 0 0.107 0 0.321 0 0.428v155.054c0 14.329-11.763 23.846-23.952 23.846-5.881 0-11.763-2.139-16.682-7.058l-178.688-178.687c-14.971-14.971-4.384-40.635 16.896-40.635z" />
<glyph unicode="&#xe908;" glyph-name="etender" d="M969.778 502.166c-10.376 12.505-25.782 19.74-42.024 19.74h-614.815l-5.963 30.991c-3.805 19.788-18.2 35.869-37.446 41.839l-157.091 48.726c-28.803 8.934-59.401-7.171-68.335-35.98-8.934-28.805 7.173-59.399 35.978-68.335l125.828-39.027 95.901-420.772c3.34-17.794 15.094-32.206 30.677-39.451-0.463-3.744-0.727-7.543-0.727-11.407 0-51.004 41.489-92.493 92.489-92.493s92.489 41.489 92.489 92.493c0 2.132-0.098 4.233-0.238 6.326h146.012c-0.142-2.095-0.24-4.198-0.24-6.326 0-51.004 41.489-92.493 92.491-92.493 51.004 0 92.493 41.489 92.493 92.493 0 2.278-0.116 4.53-0.277 6.774 23.368 2.833 42.64 20.454 47.081 44.084l87.371 377.87c2.988 15.97-1.28 32.444-11.653 44.949zM424.25-16.55c-24.838 0-45.043 20.205-45.043 45.043s20.205 45.043 45.043 45.043 45.043-20.205 45.043-45.043-20.205-45.043-45.043-45.043zM754.757-16.55c-24.836 0-45.045 20.205-45.045 45.043s20.209 45.043 45.045 45.043 45.045-20.205 45.045-45.043-20.209-45.043-45.045-45.043zM786.497 170.827h-374.253c-18.093 0-32.765 14.67-32.765 32.765s14.672 32.765 32.765 32.765h374.251c18.097 0 32.765-14.67 32.765-32.765s-14.666-32.765-32.763-32.765zM786.497 345.573h-374.253c-18.093 0-32.765 14.67-32.765 32.765s14.672 32.765 32.765 32.765h374.251c18.097 0 32.765-14.67 32.765-32.765s-14.666-32.765-32.763-32.765z" />
<glyph unicode="&#xe909;" glyph-name="guide-01" d="M0 130.093c0 220.030 0 440.023 0 660.025 4.189 7.883 10.581 13.369 18.050 18.18 23.621 15.185 48.152 28.607 74.11 39.261 71.826 29.448 146.022 39.838 223.134 27.766 55.012-8.611 106.273-27.351 154.010-55.853 6.449-3.844 11.52-4.437 18.274-0.414 13.141 7.814 26.673 15.185 40.566 21.606 76.402 35.332 156.379 47.6 239.644 34.605 61.046-9.537 117.244-32.081 169.415-65.345 15.132-9.647 21.772-21.183 21.719-39.261-0.496-128.325-0.272-256.634-0.272-384.955 0-56.003 0.024-111.982-0.057-167.973 0-3.194 1.459-7.55-1.792-9.257-3.665-1.934-5.705 2.426-8.021 4.466-9.041 8.046-18.688 15.047-30.013 19.513-12.678 5.014-12.845 5.181-8.103 17.749 12.568 33.499 15.819 68.063 10.829 103.229-16.339 115.314-126.281 196.023-240.579 175.12-83.757-15.323-140.837-64.756-164.925-146.318-24.088-81.445-2.783-153.255 58.295-212.732 8.070-7.879 8.184-8.598-2.759-12.845-24.995-9.59-48.701-21.768-70.778-36.876-15.242-10.415-29.269-10.138-44.316 0.167-21.748 14.99-45.45 26.514-69.864 36.49-61.737 25.19-125.68 31.419-191.22 21.276-53.524-8.269-102.197-29.16-147.562-58.486-20.61-13.284-34.499-9.809-47.787 10.862zM858.222 526.568c13.093-0.028 22.768 7.14 26.1 18.729 3.332 11.504-1.101 22.861-12.268 30.082-20.313 13.17-42.529 22.13-65.869 28.111-51.127 13.093-102.831 13.243-154.62 5.343-31.833-4.864-62.119-14.909-89.543-32.435-11.715-7.501-17.087-18.245-14.308-29.192 4.575-18.135 21.992-25.848 39.221-16.92 11.215 5.831 22.049 12.292 34.093 16.51 40.099 14.015 81.579 16.234 123.307 13.41 35.141-2.385 69.234-9.919 99.58-29.355 4.58-2.93 9.594-4.624 14.308-4.283zM715.784 733.663c-62.208-0.138-110.243-11.743-152.247-36.836-15.823-9.435-20.561-23.743-12.487-37.713 7.717-13.381 22.63-16.677 38.258-8.062 8.765 4.827 17.25 10.309 26.791 13.296 77.828 24.434 154.287 25.909 228.202-13.999 14.446-7.802 30.232-4.063 37.51 8.72 7.469 13.145 3.17 27.961-11.106 36.738-7.635 4.701-15.466 9.232-23.621 12.93-41.724 18.863-85.935 25.064-131.3 24.925zM409.828 553.675c0.195 8.391-3.856 15.905-12.097 21.248-20.586 13.369-42.915 22.601-66.727 28.595-46.113 11.642-92.879 12.995-139.788 7.562-37.758-4.368-73.752-15.031-105.915-36.12-12.869-8.432-16.563-23.341-9.289-35.747 7.221-12.39 22.053-16.303 35.69-9.301 6.534 3.336 12.65 7.485 19.379 10.394 55.45 24.019 113.054 25.161 171.54 15.336 23.812-4.011 45.97-12.707 66.97-25.011 18.936-11.093 40.131 0.817 40.237 23.044zM237.247 733.542c-11.601 0.329-26.238-0.345-40.818-2.097-39.083-4.714-76.593-14.279-110.161-35.873-13.507-8.68-17.916-23.674-10.78-36.271 7.083-12.54 23.125-17.416 36.547-9.342 29.85 17.957 62.318 26.868 96.601 29.489 56.251 4.303 111.177 0.467 161.422-29.326 13.145-7.798 28.639-3.978 36.108 7.94 7.497 11.971 4.161 27.575-8.326 35.99-7.412 5.014-15.242 9.635-23.345 13.462-42.468 20.139-87.755 26.201-137.249 26.027zM242.204 494.060c-16.591-0.496-33.239-0.536-49.806-2.617-37.039-4.673-72.456-14.165-104.452-34.15-15.352-9.549-20.147-24.706-11.991-38.156 7.993-13.145 22.821-16.128 38.477-7.14 10.752 6.148 21.467 12.316 33.406 15.571 75.874 20.777 150.374 22.573 221.729-16.786 14.47-7.964 30.041-3.97 37.339 9.094 7.001 12.455 2.536 28.054-10.748 36.23-7.664 4.681-15.514 9.163-23.65 12.885-41.362 18.924-85.155 25.551-130.304 25.068zM72.485 313.356c-0.163-19.708 18.798-32.219 36.933-23.788 12.349 5.734 23.645 13.698 36.876 17.615 76.564 22.601 151.475 22.845 223.602-16.152 13.999-7.578 29.241-3.946 36.571 8.57 7.335 12.511 3.088 28.026-9.919 36.486-15.433 10.033-31.915 17.863-49.501 23.373-53.744 16.815-108.593 18.493-163.933 10.967-34.288-4.657-66.865-14.852-96.41-33.569-8.761-5.53-14.381-12.698-14.218-23.503zM1024 56.121c-16.315-44.211-58.925-53.801-92.469-20.671-25.108 24.804-49.94 49.94-74.992 74.854-8.684 8.598-15.242 18.302-18.192 30.427-3.584 14.718-16.62 21.829-26.567 31.309-3.446 3.304-7.501-0.386-10.967-2.15-59.892-30.375-118.873-28.278-176.063 6.449-88.357 53.634-107.93 181.118-39.465 258.731 48.534 55.012 109.885 74.797 180.468 54.695 69.315-19.749 110.685-67.954 123.884-138.866 7.168-38.558 0.634-75.683-18.436-110.121-3.913-7.054-3.942-11.63 2.178-17.197 10.719-9.813 19.594-21.443 35.661-23.979 8.517-1.321 14.966-8.379 21.138-14.494 25.466-25.466 50.879-50.932 76.345-76.345 8.159-8.155 14.356-17.416 17.473-28.664 0.004-7.997 0.004-15.99 0.004-23.979zM837.937 322.812c0.11 66.613-53.22 120.491-119.369 120.604-66.532 0.085-119.999-53.134-120.385-119.832-0.386-66.641 52.805-120.621 119.036-120.84 67.413-0.167 120.633 52.752 120.718 120.068z" />
<glyph unicode="&#xe90a;" glyph-name="keywords" d="M388.412 811.662c-2.912 8.009-8.373 12.013-16.381 12.013h-140.876c-8.009 0-13.469-4.004-16.381-12.013l-214.046-703.295c-1.456-6.552-0.728-11.279 2.184-14.192 2.912-4.368 7.645-6.558 14.197-6.558h126.68c8.737 0 14.197 4.004 16.381 12.013l36.038 126.68h210.772l36.038-126.68c2.184-8.009 7.28-12.013 15.289-12.013h128.859c4.368 0 8.196 1.458 11.472 4.368s4.914 6.916 4.914 12.013c0 1.453-0.73 4.365-2.189 8.737l-212.952 698.926zM228.971 362.82l72.077 257.729 73.169-257.729h-145.246zM972.671 565.946c-34.218 31.306-82.268 46.959-144.148 46.959-38.587 0-74.261-6.37-107.025-19.109-32.764-12.741-61.52-31.488-86.274-56.242-5.83-5.824-6.916-12.377-3.276-19.657l40.407-69.891c2.186-4.367 6.187-7.28 12.013-8.737 5.093-1.458 9.829 0 14.197 4.368 33.49 34.218 70.619 51.327 111.391 51.327 52.418 0 78.626-25.119 78.626-75.353v-31.67c-30.576 24.026-68.435 36.033-113.572 36.033-20.385 0-40.589-3.456-60.61-10.371-20.025-6.916-37.864-17.473-53.512-31.67-15.655-14.197-28.394-32.4-38.223-54.609-9.829-22.202-14.743-48.228-14.743-78.083 0-29.117 4.727-54.604 14.192-76.445 9.47-21.841 22.205-40.225 38.228-55.15 16.015-14.921 33.852-26.21 53.506-33.854 19.661-7.645 40.043-11.467 61.156-11.467s41.497 3.276 61.154 9.829c19.663 6.552 37.136 16.015 52.419 28.394v-9.829c0-4.368 1.638-8.196 4.914-11.472 3.282-3.276 7.1-4.914 11.472-4.914h102.649c4.368 0 8.194 1.638 11.472 4.914 3.276 3.276 4.914 7.1 4.914 11.472v331.994c0.002 57.516-17.107 101.927-51.329 133.233zM888.583 212.116c-16.017-24.754-41.499-37.136-76.445-37.136-21.113 0-37.857 6.734-50.23 20.203-12.38 13.469-18.565 31.126-18.565 52.971 0 21.836 6.187 39.673 18.565 53.506 12.375 13.833 29.117 20.749 50.23 20.749 10.193 0 22.937-2.364 38.223-7.098 15.289-4.734 28.030-15.471 38.223-32.216v-70.979z" />
<glyph unicode="&#xe90b;" glyph-name="login" d="M419.3 185.645l422.233 243.8c6.626 3.811 10.704 10.896 10.704 18.528s-4.078 14.718-10.704 18.539l-422.233 243.832c-6.626 3.821-14.782 3.821-21.408 0s-10.704-10.896-10.704-18.539v-113.514h-364.486c-11.817 0-21.408-9.591-21.408-21.408v-217.758c0-11.817 9.591-21.408 21.408-21.408h364.496v-113.503c0-7.664 4.078-14.718 10.704-18.539 3.318-1.927 7.011-2.869 10.704-2.869s7.386 0.942 10.693 2.837zM864.599 960h-436.169c-11.817 0-21.408-9.591-21.408-21.408v-64.223c0-11.817 9.591-21.408 21.408-21.408h436.169c28.172 0 51.068-22.917 51.068-51.068v-707.788c0-28.162-22.917-51.068-51.068-51.068h-436.169c-11.817 0-21.408-9.591-21.408-21.408v-64.223c0-11.817 9.591-21.408 21.408-21.408h436.169c87.193 0 158.106 70.934 158.106 158.106v707.778c0 87.182-70.923 158.116-158.106 158.116z" />
<glyph unicode="&#xe90c;" glyph-name="mail" d="M512 334.96l-97.892 85.684-279.886-239.925c10.174-9.44 23.908-15.317 39.056-15.317h677.442c15.091 0 28.769 5.878 38.886 15.317l-279.715 239.925-97.892-85.684zM889.777 715.281c-10.174 9.495-23.851 15.317-39.056 15.317h-677.442c-15.091 0-28.769-5.878-38.942-15.43l377.662-323.687 377.777 323.8zM116.364 680.973v-469.563l273.158 232.126zM634.478 443.536l273.158-232.126v469.733z" />
<glyph unicode="&#xe90d;" glyph-name="mobile" d="M788.792 929.598c-20.253 20.276-44.264 30.402-71.995 30.402h-409.59c-27.74 0-51.737-10.135-72.004-30.402-20.267-20.256-30.402-44.261-30.402-71.993v-819.205c0-27.729 10.135-51.731 30.402-71.993 20.267-20.27 44.264-30.408 72.004-30.408h409.59c27.729 0 51.742 10.146 71.993 30.408 20.27 20.261 30.408 44.264 30.408 71.993v819.205c0 27.732-10.124 51.726-30.405 71.993zM448.003 857.605h128.011c8.535 0 12.791-4.267 12.791-12.802 0-8.532-4.259-12.805-12.791-12.805h-128.011c-8.532 0-12.8 4.273-12.8 12.805-0.003 8.535 4.265 12.802 12.8 12.802zM557.215-6.802c-12.542-12.522-27.606-18.793-45.211-18.793-17.597 0-32.66 6.271-45.197 18.793-12.536 12.545-18.804 27.617-18.804 45.202 0 17.605 6.277 32.672 18.804 45.205 12.528 12.522 27.603 18.813 45.197 18.813 17.608 0 32.672-6.291 45.211-18.813 12.533-12.533 18.796-27.6 18.796-45.205s-6.271-32.66-18.796-45.202zM742.41 166.394c0-6.924-2.53-12.945-7.605-18-5.080-5.063-11.065-7.585-17.989-7.585h-409.61c-6.932 0-12.931 2.53-17.997 7.585s-7.599 11.076-7.599 18v563.197c0 6.932 2.53 12.937 7.599 17.997 5.069 5.058 11.065 7.605 17.997 7.605h409.59c6.943 0 12.934-2.536 18.009-7.605 5.074-5.063 7.594-11.065 7.594-17.997v-563.195h0.011z" />
<glyph unicode="&#xe90e;" glyph-name="multilevel" d="M0 163.543v-113.707h341.248v113.707h-341.248zM0 846.166v-113.707h568.917v113.707h-568.917zM568.917-64v113.834h455.083v113.707h-455.083v113.836h-113.834v-341.376h113.834zM227.669 618.624v-113.707h-227.669v-113.834h227.669v-113.707h113.578v341.248h-113.578zM1024 391.083v113.834h-568.917v-113.834h568.917zM682.751 618.624h113.578v113.834h227.669v113.709h-227.667v113.834h-113.578c-0.002 0-0.002-341.376-0.002-341.376z" />
<glyph unicode="&#xe90f;" glyph-name="password" d="M823.652 336.695h-623.305c-61.35 0-111.304-49.91-111.304-111.304v-89.044c0-61.394 49.953-111.304 111.304-111.304h623.305c61.35 0 111.304 49.91 111.304 111.304v89.044c0 61.396-49.953 111.304-111.304 111.304zM305.152 120.633c-4.364-4.364-10.061-6.545-15.761-6.545s-11.397 2.181-15.761 6.501l-28.76 28.76-28.76-28.76c-4.364-4.318-10.061-6.501-15.761-6.501s-11.397 2.181-15.761 6.501c-8.682 8.682-8.682 22.796 0 31.478l28.76 28.76-28.76 28.76c-8.682 8.682-8.682 22.796 0 31.478s22.796 8.682 31.478 0l28.76-28.76 28.76 28.76c8.682 8.682 22.796 8.682 31.478 0s8.682-22.796 0-31.478l-28.76-28.76 28.85-28.717c8.68-8.684 8.68-22.796-0.002-31.478zM483.239 120.633c-4.364-4.364-10.061-6.545-15.761-6.545s-11.397 2.181-15.761 6.501l-28.76 28.76-28.76-28.76c-4.364-4.318-10.061-6.501-15.761-6.501s-11.397 2.181-15.761 6.501c-8.682 8.682-8.682 22.796 0 31.478l28.76 28.76-28.76 28.76c-8.682 8.682-8.682 22.796 0 31.478s22.796 8.682 31.478 0l28.76-28.76 28.76 28.76c8.682 8.682 22.796 8.682 31.478 0s8.682-22.796 0-31.478l-28.76-28.76 28.85-28.717c8.68-8.684 8.68-22.796-0.002-31.478zM661.325 120.633c-4.364-4.364-10.061-6.545-15.761-6.545s-11.397 2.181-15.761 6.501l-28.76 28.76-28.76-28.76c-4.364-4.318-10.061-6.501-15.761-6.501s-11.397 2.181-15.761 6.501c-8.682 8.682-8.682 22.796 0 31.478l28.76 28.76-28.76 28.76c-8.682 8.682-8.682 22.796 0 31.478s22.796 8.682 31.478 0l28.76-28.76 28.76 28.76c8.682 8.682 22.796 8.682 31.478 0s8.682-22.796 0-31.478l-28.76-28.76 28.85-28.717c8.68-8.684 8.68-22.796-0.002-31.478zM839.413 120.633c-4.364-4.364-10.061-6.545-15.761-6.545s-11.397 2.181-15.761 6.501l-28.76 28.76-28.76-28.76c-4.364-4.318-10.061-6.501-15.761-6.501s-11.397 2.181-15.761 6.501c-8.682 8.682-8.682 22.796 0 31.478l28.76 28.76-28.76 28.76c-8.682 8.682-8.682 22.796 0 31.478s22.796 8.682 31.478 0l28.76-28.76 28.76 28.76c8.682 8.682 22.796 8.682 31.478 0s8.682-22.796 0-31.478l-28.76-28.76 28.85-28.717c8.68-8.684 8.68-22.796-0.002-31.478zM289.392 381.218h445.216c12.288 0 22.262 10.017 22.262 22.305 0 55.786-37.799 104.225-91.937 117.804l-66.826 16.652-2.805 11.219c17.363 19.144 29.651 43.586 34.771 68.963 11.887 6.144 20.525 17.808 22.262 31.832l4.852 38.734c1.469 11.71-2.137 23.507-9.928 32.456-2.404 2.805-5.165 5.165-8.147 7.169l1.158 23.597 4.097 4.141c11.443 12.154 26.936 38.243 2.404 75.775-11.71 17.854-35.706 39.135-83.879 39.135-14.158 0-46.17 0-77.244-19.501-91.626-3.162-102.401-52.581-102.401-89.846 0-7.346 1.292-21.147 2.582-32.59-3.295-2.093-6.321-4.631-8.949-7.613-7.88-8.949-11.576-20.88-10.107-32.723l4.852-38.69c1.826-14.515 11.042-26.536 24.62-32.456 5.032-24.309 16.652-47.816 32.901-66.472l-3.249-13.089-66.826-16.652c-54.14-13.622-91.939-62.062-91.939-117.892 0-12.288 9.974-22.259 22.262-22.259zM912.694 960h-801.391c-61.35 0-111.304-49.91-111.304-111.304v-801.391c0-61.396 49.953-111.304 111.304-111.304h801.391c61.35 0 111.304 49.91 111.304 111.304v801.391c0.002 61.394-49.951 111.304-111.304 111.304zM979.477 47.306c0-36.82-29.962-66.783-66.783-66.783h-801.391c-36.82 0-66.783 29.962-66.783 66.783v801.391c0 36.82 29.962 66.783 66.783 66.783h801.391c36.82 0 66.783-29.962 66.783-66.783v-801.391z" />
<glyph unicode="&#xe910;" glyph-name="person" d="M512.003 417.745c126.795 0 229.594 120.316 229.594 268.731 0 205.812-102.794 268.729-229.594 268.729-126.805 0-229.594-62.917-229.594-268.729 0.003-148.415 102.792-268.731 229.594-268.731zM1018.995 22.209l-115.833 260.935c-5.298 11.94-14.606 21.843-26.19 27.875l-179.766 93.58c-3.964 2.060-8.764 1.659-12.328-1.039-50.844-38.456-110.625-58.783-172.874-58.783-62.259 0-122.035 20.327-172.879 58.783-3.574 2.698-8.374 3.098-12.338 1.039l-179.754-93.58c-11.59-6.031-20.887-15.929-26.19-27.875l-115.833-260.935c-7.986-17.989-6.349-38.571 4.38-55.071 10.724-16.498 28.873-26.343 48.552-26.343h908.119c19.678 0 37.833 9.85 48.557 26.346 10.724 16.498 12.366 37.087 4.38 55.069z" />
<glyph unicode="&#xe911;" glyph-name="phone" d="M1023.511 152.060c2.17-16.624-2.896-31.077-15.177-43.361l-144.177-143.088c-6.504-7.227-14.994-13.375-25.473-18.429-10.479-5.061-20.776-8.313-30.89-9.756-0.723 0-2.896-0.186-6.511-0.547-3.608-0.36-8.306-0.544-14.087-0.544-13.735 0-35.959 2.349-66.674 7.048s-68.293 16.264-112.734 34.689c-44.453 18.429-94.859 46.075-151.227 82.929-56.368 36.852-116.353 87.444-179.95 151.765-50.588 49.866-92.504 97.563-125.748 143.091-33.244 45.531-59.983 87.628-80.219 126.292-20.237 38.664-35.414 73.714-45.531 105.152s-16.983 58.538-20.597 81.303-5.059 40.651-4.336 53.66c0.723 13.008 1.084 20.235 1.084 21.681 1.445 10.118 4.697 20.416 9.756 30.895s11.202 18.971 18.429 25.475l144.177 144.177c10.118 10.118 21.681 15.177 34.689 15.177 9.395 0 17.706-2.71 24.933-8.13s13.37-12.105 18.429-20.055l115.992-220.059c6.504-11.563 8.311-24.21 5.42-37.941s-9.034-25.294-18.429-34.689l-53.118-53.118c-1.445-1.445-2.71-3.794-3.794-7.046s-1.626-5.962-1.626-8.13c2.891-15.177 9.395-32.521 19.513-52.034 8.672-17.345 22.042-38.483 40.109-63.416s43.723-53.658 76.967-86.179c32.521-33.247 61.429-59.080 86.723-77.512 25.289-18.422 46.435-31.977 63.418-40.65s29.992-13.912 39.024-15.713l13.547-2.712c1.445 0 3.799 0.544 7.048 1.626 3.252 1.086 5.601 2.349 7.048 3.796l61.788 62.874c13.016 11.561 28.185 17.343 45.531 17.343 12.289 0 22.040-2.166 29.267-6.504h1.082l209.217-123.58c15.182-9.402 24.214-21.323 27.106-35.777z" />
<glyph unicode="&#xe912;" glyph-name="print" d="M256 160v-192h512v320h-512v-128zM320 224h384v-64h-384v64zM320 96h384v-64h-384v64zM768 736v192h-512v-320h512zM896 736h-64v-192h-640v192h-64c-64 0-128-64-128-128v-320c0-64 64-128 128-128h64v192h640v-192h64c64 0 128 64 128 128v320c0 64-64 128-128 128z" />
<glyph unicode="&#xe913;" glyph-name="report" d="M910.222 960h-796.444c-62.578 0-113.778-51.2-113.778-113.778v-796.444c0-62.578 51.2-113.778 113.778-113.778h796.444c62.578 0 113.778 51.2 113.778 113.778v796.444c0 62.578-51.2 113.778-113.778 113.778zM341.333 163.556h-113.778v398.222h113.778v-398.222zM568.889 163.556h-113.778v568.889h113.778v-568.889zM796.444 163.556h-113.778v227.556h113.778v-227.556z" />
<glyph unicode="&#xe914;" glyph-name="RFX" d="M545.294 15.544l-135.119 135.116 298.502 298.502 135.116-135.119-298.5-298.5zM530.068 926.744v-158.955h158.955zM341.798 177.668h-182.663v67.442h250.106l89.923 89.923h-340.029v67.442h407.471l155.673 155.673v142.198h-259.653v259.653h-417.019v-935.201h240.684l40.139 137.502 15.368 15.368zM159.135 559.842h449.616v-67.442h-449.616v67.442zM756.364 496.855l86.913 86.913 135.119-135.119-86.913-86.913-135.119 135.119zM356.55 24.799l-25.923-88.799 153.91 44.93-108.98 108.982z" />
<glyph unicode="&#xe915;" glyph-name="share" d="M919.018 516.23c-9.386-0.716-16.436-8.908-15.718-18.312 0.82-10.804 1.228-21.862 1.228-32.854 0-9.42 7.646-17.066 17.066-17.066 9.438 0 17.066 7.646 17.066 17.066 0 11.862-0.444 23.774-1.332 35.43-0.698 9.404-8.924 16.47-18.31 15.736zM885.266 590.6c3.822-11.828 7.134-24.098 9.848-36.454 1.74-7.988 8.806-13.432 16.658-13.432 1.212 0 2.424 0.12 3.652 0.392 9.216 2.014 15.036 11.11 13.038 20.326-2.952 13.448-6.554 26.794-10.734 39.68-2.884 8.96-12.476 13.892-21.486 10.974-8.962-2.9-13.876-12.526-10.976-21.486zM863.842 642.916c3.004-5.974 9.012-9.404 15.274-9.404 2.56 0 5.188 0.58 7.628 1.81 8.43 4.232 11.828 14.49 7.594 22.92-6.144 12.22-13.022 24.268-20.428 35.806-5.086 7.936-15.668 10.24-23.57 5.136-7.936-5.086-10.24-15.65-5.136-23.568 6.758-10.546 13.022-21.538 18.638-32.7zM706.958 799.818c11.23-5.65 22.22-11.93 32.682-18.636 2.868-1.844 6.058-2.714 9.216-2.714 5.614 0 11.11 2.764 14.37 7.834 5.086 7.936 2.798 18.5-5.136 23.586-11.452 7.356-23.5 14.234-35.788 20.412-8.448 4.25-18.672 0.854-22.904-7.56-4.25-8.432-0.854-18.69 7.56-22.922zM784.486 746.998c9.25-8.294 18.194-17.238 26.556-26.572 3.38-3.754 8.038-5.666 12.714-5.666 4.062 0 8.124 1.434 11.4 4.352 7.014 6.298 7.594 17.1 1.298 24.116-9.198 10.256-19.012 20.070-29.184 29.184-7.032 6.314-17.834 5.684-24.098-1.314-6.298-7.034-5.7-17.82 1.314-24.1zM618.242 831.084c12.374-2.696 24.644-6.024 36.454-9.848 1.758-0.564 3.516-0.836 5.256-0.836 7.202 0 13.91 4.608 16.248 11.81 2.902 8.978-2.014 18.602-10.99 21.504-12.868 4.164-26.214 7.782-39.662 10.718-9.25 2.014-18.312-3.822-20.326-13.022-2.016-9.216 3.804-18.312 13.020-20.326zM563.226 839.25c8.84 0 16.332 6.81 16.998 15.77 0.716 9.404-6.332 17.612-15.718 18.312-11.674 0.888-23.586 1.332-35.43 1.332-9.438 0-17.066-7.646-17.066-17.066s7.628-17.066 17.066-17.066c10.99 0 22.034-0.41 32.836-1.228 0.444-0.038 0.886-0.054 1.314-0.054zM104.976 379.774c9.404 0.716 16.436 8.908 15.718 18.312-0.802 10.804-1.228 21.862-1.228 32.854 0 9.42-7.646 17.066-17.066 17.066s-17.066-7.646-17.066-17.066c0-11.862 0.444-23.774 1.332-35.448 0.682-8.96 8.158-15.77 16.998-15.77 0.44 0.002 0.868 0.018 1.312 0.052zM160.158 253.084c-4.25 8.414-14.506 11.81-22.904 7.594-8.43-4.232-11.828-14.49-7.594-22.92 6.144-12.22 13.022-24.268 20.428-35.806 3.26-5.086 8.756-7.85 14.37-7.85 3.158 0 6.348 0.87 9.198 2.714 7.936 5.086 10.24 15.65 5.138 23.57-6.756 10.544-13.020 21.536-18.636 32.698zM138.734 305.4c-3.822 11.828-7.134 24.098-9.848 36.454-2.014 9.216-11.11 15.018-20.31 13.038-9.216-2.014-15.036-11.11-13.038-20.326 2.952-13.448 6.554-26.794 10.734-39.68 2.322-7.22 9.028-11.828 16.23-11.828 1.74 0 3.498 0.29 5.256 0.854 8.962 2.902 13.876 12.528 10.976 21.488zM405.758 64.916c-12.374 2.696-24.644 6.024-36.454 9.848-8.978 2.884-18.602-2.032-21.504-10.974-2.902-8.978 2.014-18.602 10.99-21.504 12.868-4.164 26.214-7.782 39.662-10.718 1.246-0.274 2.458-0.392 3.67-0.392 7.85 0 14.916 5.444 16.658 13.414 2.014 9.216-3.806 18.312-13.022 20.326zM317.042 96.182c-11.23 5.65-22.22 11.93-32.682 18.636-7.936 5.102-18.484 2.798-23.586-5.12-5.086-7.936-2.798-18.5 5.138-23.586 11.452-7.356 23.5-14.234 35.788-20.412 2.458-1.246 5.068-1.826 7.646-1.826 6.264 0 12.27 3.43 15.258 9.386 4.248 8.432 0.852 18.69-7.562 22.922zM239.514 149.002c-9.25 8.294-18.194 17.238-26.556 26.572-6.314 6.998-17.084 7.612-24.116 1.314-7.014-6.298-7.594-17.1-1.296-24.116 9.198-10.258 19.012-20.070 29.184-29.184 3.26-2.918 7.338-4.352 11.384-4.352 4.694 0 9.352 1.912 12.714 5.666 6.298 7.034 5.7 17.82-1.314 24.1zM494.934 55.466c-10.99 0-22.050 0.41-32.854 1.228-9.558 0.82-17.596-6.314-18.312-15.718s6.332-17.596 15.736-18.312c11.656-0.888 23.586-1.332 35.43-1.332 9.42 0 17.066 7.646 17.066 17.066s-7.646 17.068-17.066 17.068zM477.866 533.334v375.466c0 28.228-22.972 51.2-51.2 51.2h-375.466c-28.228 0-51.2-22.972-51.2-51.2v-375.466c0-28.228 22.972-51.2 51.2-51.2h375.466c28.228 0 51.2 22.972 51.2 51.2zM85.334 874.666h170.666c9.42 0 17.066-7.646 17.066-17.066s-7.646-17.066-17.066-17.066h-170.666c-9.42 0-17.066 7.646-17.066 17.066s7.644 17.066 17.066 17.066zM68.266 652.8c0 9.42 7.646 17.066 17.066 17.066h68.268c9.42 0 17.066-7.646 17.066-17.066s-7.646-17.066-17.066-17.066h-68.266c-9.422 0-17.068 7.646-17.068 17.066zM256 567.466h-136.534c-9.42 0-17.066 7.646-17.066 17.066s7.646 17.066 17.066 17.066h136.534c9.42 0 17.066-7.646 17.066-17.066s-7.646-17.066-17.066-17.066zM256 704h-170.666c-9.42 0-17.066 7.646-17.066 17.066s7.646 17.066 17.066 17.066h170.666c9.42 0 17.066-7.646 17.066-17.066s-7.646-17.066-17.066-17.066zM324.266 772.266h-187.732c-9.42 0-17.066 7.646-17.066 17.066s7.646 17.066 17.066 17.066h187.734c9.42 0 17.066-7.646 17.066-17.066s-7.646-17.066-17.068-17.066zM972.8 413.866h-375.466c-28.228 0-51.2-22.972-51.2-51.2v-375.466c0-28.228 22.972-51.2 51.2-51.2h375.466c28.228 0 51.2 22.972 51.2 51.2v375.466c0 28.228-22.972 51.2-51.2 51.2zM631.466 328.534h170.666c9.42 0 17.066-7.646 17.066-17.066s-7.646-17.066-17.066-17.066h-170.666c-9.42 0-17.066 7.646-17.066 17.066s7.646 17.066 17.066 17.066zM614.4 106.666c0 9.42 7.646 17.066 17.066 17.066h68.266c9.42 0 17.066-7.646 17.066-17.066s-7.646-17.066-17.066-17.066h-68.266c-9.42 0-17.066 7.646-17.066 17.066zM802.134 21.334h-136.534c-9.42 0-17.066 7.646-17.066 17.066s7.646 17.066 17.066 17.066h136.534c9.42 0 17.066-7.646 17.066-17.066s-7.646-17.066-17.066-17.066zM802.134 157.866h-170.666c-9.42 0-17.066 7.646-17.066 17.066s7.646 17.066 17.066 17.066h170.666c9.42 0 17.066-7.646 17.066-17.066s-7.646-17.066-17.066-17.066zM870.4 226.134h-187.734c-9.42 0-17.066 7.646-17.066 17.066s7.646 17.066 17.066 17.066h187.734c9.42 0 17.066-7.646 17.066-17.066s-7.646-17.066-17.066-17.066z" />
<glyph unicode="&#xe916;" glyph-name="tender" d="M498.424 684.243l143.197-142.962c8.936-9.066 9.001-23.585-0.122-32.959-8.879-8.802-23.601-8.802-32.581 0.268l-143.104 142.97c-9.062 9.074-9.062 23.771 0 32.707 9.053 9.070 23.589 9.070 32.61-0.024zM397.804 297.517l-143.067 143.067c-9.062 8.972-23.788 8.972-32.719 0-9.053-8.968-9.171-23.678 0-32.735l143.112-143.226c8.932-8.875 23.593-8.875 32.679 0.179 9.078 8.94 9.078 23.601-0.004 32.715zM325.421 960.536h472.292v-756.679l172.113-160.935-106.26-106.382-65.853 70.363v-10.992h-742.977v683.487l270.685 281.137zM312.82 834.67l-127.553-132.397h127.553v132.397zM132.901 74.106h586.642v16.498l-253.607 271.132-52.671-52.724-146.907 147.021 183.845 183.999 147.107-147.212-52.431-52.374 174.669-163.397v605.253h-348.16v-238.677h-238.486v-569.519z" />
<glyph unicode="&#xe917;" glyph-name="web" d="M512 960c-282.772 0-512-229.228-512-512s229.228-512 512-512 512 229.228 512 512-229.23 512-512 512zM512 27.41c-231.921 0-420.592 188.676-420.592 420.592s188.671 420.59 420.592 420.59c231.921 0 420.592-188.671 420.592-420.592-0.002-231.919-188.673-420.59-420.592-420.59zM294.789 571.349h-105.34c-10.408-27.129-17.52-55.86-20.774-85.753h117.435c1.343 29.333 4.275 58.040 8.679 85.753zM229.611 646.537h81.478c8.979 32.083 20.14 62.026 33.433 88.937 3.47 7.024 7.094 13.69 10.785 20.194-50.244-25.697-93.386-63.314-125.696-109.131zM729.211 324.652h105.34c10.41 27.127 17.518 55.86 20.768 85.753h-117.429c-1.344-29.335-4.277-58.040-8.679-85.753zM737.888 485.595h117.435c-3.249 29.893-10.359 58.626-20.768 85.753h-105.34c4.398-27.711 7.331-56.418 8.674-85.753zM679.478 160.532c-3.47-7.026-7.094-13.692-10.785-20.194 50.249 25.693 93.386 63.309 125.694 109.126h-81.478c-8.979-32.078-20.14-62.026-33.431-88.932zM712.906 646.537h81.478c-32.31 45.815-75.445 83.433-125.694 109.126 3.691-6.504 7.315-13.169 10.785-20.193 13.295-26.908 24.456-56.853 33.431-88.933zM311.094 249.463h-81.485c32.31-45.815 75.447-83.433 125.696-109.126-3.691 6.503-7.315 13.169-10.785 20.194-13.291 26.906-24.452 56.853-33.426 88.932zM286.11 410.405h-117.435c3.25-29.893 10.36-58.626 20.768-85.753h105.34c-4.398 27.713-7.331 56.418-8.674 85.753zM549.595 780.922v-134.386h84.997c-21.462 66.022-52.511 113.224-84.997 134.386zM389.409 646.537h84.997v134.384c-32.487-21.16-63.535-68.362-84.997-134.384zM370.875 324.652h103.531v85.753h-113.063c1.497-30.286 4.784-58.963 9.532-85.753zM361.341 485.595h113.063v85.753h-103.531c-4.746-26.788-8.033-55.467-9.532-85.753zM549.595 571.349v-85.753h113.063c-1.499 30.284-4.79 58.965-9.534 85.753h-103.529zM549.595 324.652h103.529c4.742 26.785 8.035 55.463 9.534 85.753h-113.063v-85.753zM474.405 115.080v134.384h-84.997c21.462-66.020 52.509-113.224 84.997-134.384zM549.595 115.080c32.487 21.156 63.535 68.358 84.997 134.384h-84.997v-134.384z" />
<glyph unicode="&#xe918;" glyph-name="workflow" d="M48.75 589.744h339.222c8.571 0 15.516 6.948 15.516 15.516v339.225c0 8.568-6.945 15.516-15.516 15.516h-339.222c-8.574 0-15.516-6.948-15.516-15.516v-339.225c0-8.571 6.942-15.516 15.516-15.516zM229.332 365.892c-6.054 6.057-15.885 6.057-21.939 0l-201.702-201.702c-6.060-6.060-6.060-15.885 0-21.942l201.702-201.702c3.029-3.029 7.001-4.543 10.969-4.543s7.944 1.514 10.969 4.543l201.702 201.702c6.060 6.060 6.060 15.885 0 21.942l-201.702 201.702zM714.338 590.191h195.337c5.542 0 10.662 2.957 13.436 7.758l97.664 169.163c2.771 4.801 2.771 10.715 0 15.516l-97.664 169.166c-2.771 4.801-7.894 7.758-13.436 7.758h-195.337c-5.545 0-10.668-2.957-13.436-7.758l-97.664-169.166c-2.771-4.801-2.771-10.715 0-15.516l97.664-169.163c2.774-4.801 7.891-7.758 13.436-7.758zM825.615 350.451c-108.761 0-197.243-88.479-197.243-197.236s88.482-197.243 197.243-197.243c108.761 0 197.243 88.482 197.243 197.243-0.003 108.758-88.485 197.236-197.243 197.236zM202.847 567.47c-5.998 0-10.861-4.863-10.861-10.861v-142.743c0-5.998 4.863-10.861 10.861-10.861h24.825c5.998 0 10.861 4.863 10.861 10.861v142.743c0 5.998-4.863 10.861-10.861 10.861h-24.825zM810.1 562.294c-5.998 0-10.861-4.863-10.861-10.861v-142.743c0-5.998 4.863-10.861 10.861-10.861h24.825c5.998 0 10.861 4.863 10.861 10.861v142.743c0 5.998-4.863 10.861-10.861 10.861h-24.825zM562.425 794.493h-108.354c-6.001 0-10.861-4.863-10.861-10.861v-24.825c0-5.998 4.859-10.861 10.861-10.861h108.354c5.995 0 10.861 4.863 10.861 10.861v24.825c0 5.998-4.866 10.861-10.861 10.861z" />
</font>
</defs>
</svg>
